<svg width="280" height="280" viewBox="0 0 74.083 74.083" xmlns="http://www.w3.org/2000/svg">
  <path d="M170.247 111.255c0 12.35-4.514 22.971-13.543 31.862-9.238 9.082-18.697 9.731-32.005 9.731h-33.62c0-22.224-.02-77.563 0-81.11 13.295 0 18.923.776 32.12 0 15.074 1.95 24.346 1.89 33.427 10.108 9.08 8.17 13.62 17.973 13.62 29.41zm-13.387 4.47c0-10.621-2.792-19.776-8.376-27.465-6.42-8.843-15.109-13.264-26.068-13.264-13.048 0-19.436 4.853-19.436 11.485 0 19.48-.297 35.82 0 54.64 0 6.103 5.424 9.853 19.515 9.853 10.646 0 19.127-3.484 25.442-10.452 5.95-6.536 8.924-14.802 8.924-24.798z" style="font-style:normal;font-variant:normal;font-weight:400;font-stretch:normal;font-size:64px;line-height:25px;font-family:Maya;-inkscape-font-specification:Maya;letter-spacing:0;word-spacing:0;fill:#0f0c0d;fill-opacity:.968912;stroke:none;stroke-width:2.40386px;stroke-linecap:butt;stroke-linejoin:miter;stroke-opacity:1" transform="matrix(.25317 0 0 .24818 -9.457 -1.917)"/>
  <path d="M201.719 123.081c-10.542-.213-20.118-.215-25.363-.213-.113.229 4.985-7.358.582 1.076-15.087 28.904-10.134 19.051-15.087 28.904 0 0-4.208-.005-7.407-.036l41.73-81.083c6.981 0 3.296 0 5.875.002.027 0 .032.227.06.23.696 15.14 1.108 37.924-.39 51.112zm.198-46.95c-.4.827-1.487 3.055-1.93 3.884-18.82 35.205-12.037 22.555-18.82 35.205-19.317 37.628-5.19 5.472-1.484.668h22.234c1.927-17.755 0-39.758 0-39.758z" style="font-style:normal;font-variant:normal;font-weight:400;font-stretch:normal;font-size:64px;line-height:25px;font-family:Maya;-inkscape-font-specification:Maya;letter-spacing:0;word-spacing:0;fill:#0f0c0d;fill-opacity:.968627;stroke:none;stroke-width:2.40386px;stroke-linecap:butt;stroke-linejoin:miter;stroke-opacity:1" transform="matrix(.25317 0 0 .24818 -9.457 -1.917)"/>
  <path d="M259.133 152.762c-1.72 0-5.517.095-7.327.095-4.78-.009-3.246-.009-4.78-.009l-25.216-29.966c-4.063-.011-5.012-.071-19.756.024-3.826.024-6.047-5.345-5.975-5.354 3.355-.392 8.472-1.651 13.985-1.648 7.81.005 6.34.005 12.424.005 1.775-.577 3.26-1.326 4.983-1.854 8.09-3.605 12.134-10.332 12.134-20.184 0-4.998-2.16-9.164-6.44-12.672-4.227-3.508-9.107-5.262-14.639-5.262h-8.82c-.027 11.71.016 27.964 0 39.96l.052 8.481c-.052 6.585-.052 7.879.016 15.807-.069 10.086-.069-.956-.069 12.671h-7.79c.01-11.961.012-8.405.01-11.961-.01-18.024-.01-10.17-.01-20.133-3.725-4.093-.121 2.109 0-4.44-.026-14.86-.038-29.72 0-44.581h22.736c7.567 0 13.862.497 18.768 3.91 5.48 3.796 8.22 9.058 8.22 15.786 0 6.344-1.932 11.966-5.794 16.868-3.705 4.71-8.793 8.29-15.265 10.74l28.552 33.725z" style="font-style:normal;font-variant:normal;font-weight:400;font-stretch:normal;font-size:64px;line-height:25px;font-family:Maya;-inkscape-font-specification:Maya;letter-spacing:0;word-spacing:0;fill:#0f0c0d;fill-opacity:.968627;stroke:none;stroke-width:2.40386px;stroke-linecap:butt;stroke-linejoin:miter;stroke-opacity:1" transform="matrix(.25317 0 0 .24818 -9.457 -1.917)"/>
  <path style="font-style:normal;font-variant:normal;font-weight:400;font-stretch:normal;font-size:64px;line-height:25px;font-family:Maya;-inkscape-font-specification:Maya;letter-spacing:0;word-spacing:0;fill:#0f0c0d;fill-opacity:.968627;stroke:none;stroke-width:1.0778px;stroke-linecap:butt;stroke-linejoin:miter;stroke-opacity:1" d="M139.85 246.944c-13.72 19.804-.444.69-14.183 20.493.286 15.874-.028-.69.286 15.874h-3.113l.443-16c-10.47-19.803-.443-.563-10.914-20.367h3.9l8.135 17.898 11.429-17.898z" transform="matrix(-.56465 0 0 -.55351 112.848 196.652)"/>
  <path style="font-style:normal;font-variant:normal;font-weight:400;font-stretch:normal;font-size:64px;line-height:25px;font-family:Maya;-inkscape-font-specification:Maya;letter-spacing:0;word-spacing:0;fill:#0f0c0d;fill-opacity:.968627;stroke:none;stroke-width:1.11478px;stroke-linecap:butt;stroke-linejoin:miter;stroke-opacity:1" d="M194.15 293.727c0 .876-.246 1.51-.737 1.901-.328.254-1.849.38-4.563.38-4.633 0-8.436-2.154-11.408-6.465l-2.035-3.043c-.708-.976-1.76-2.26-2.474-2.455-8.266-7.181-12.476-19.22-15.58-30.503a435.09 435.09 0 0 1-1.742-6.596c4.352-4.288 9.664-6.432 15.935-6.432 5.756 0 10.729 2.017 14.917 6.051 4.189 4.034 6.283 8.886 6.283 14.557 0 4.725-1.357 9.059-4.072 13-2.784 4.011-6.423 6.777-10.916 8.298.89.738 2.34 2.398 4.353 4.98 1.825 2.35 3.205 3.814 4.141 4.39.96.577 2.036.9 3.23.969 1.193.069 2.363.127 3.51.173.772.069 1.158.334 1.158.795zm-7.406-30.462c0-5.232-1.31-9.75-3.931-13.553-3.019-4.357-7.055-6.535-12.11-6.535-4.937 0-8.798 1.89-11.582 5.67 1.61 11.108 8.178 32.165 11.617 31.914 4.938 0 8.88-1.729 11.829-5.187 2.785-3.25 4.177-7.353 4.177-12.309z" transform="matrix(-.56465 0 0 -.55351 112.848 196.652)"/>
  <path style="font-style:normal;font-variant:normal;font-weight:400;font-stretch:normal;font-size:64px;line-height:25px;font-family:Maya;-inkscape-font-specification:Maya;letter-spacing:0;word-spacing:0;fill:#0f0c0d;fill-opacity:.968627;stroke:none;stroke-width:1.0778px;stroke-linecap:butt;stroke-linejoin:miter;stroke-opacity:1" d="M152.99 269.907c-4.596 0-9.07-.022-11.422-.022-.05.103 2.235-3.299.261.483-6.765 12.96-4.544 8.542-6.765 12.96 0 0-1.886-.003-3.32-.017l18.71-36.355c.882-.01 3.037-.01 5.157-.01l.153 17.58c.028 3.143.004 5.814-.002 8.404-.009 4.149.01 8.2.017 10.415.001.354.044.005-.027.005-1.87 0-2.19 0-2.63.005-.059.001-.135.032-.136-.027-.001-.077.016-1.239.016-1.582-.012-6.47-.012-13.438-.012-11.841zm.039-20.975c-.18.371-.667 1.37-.866 1.742-8.438 15.785-5.396 10.113-8.438 15.785-8.66 16.87-2.327 2.453-.665.3h9.969c.713-6.578-.086 4.92-.044 10.602.041 5.596.005-28.5.005-28.5z" transform="matrix(-.56465 0 0 -.55351 112.848 196.652)"/>
  <path d="M270.692 191.404c4.12-9.387 8.173-18.506 10.28-23.309-.164-.195 4.735 7.521-1.22.101-20.404-25.431-13.372-16.936-20.404-25.431 0 0 1.695-3.85 3.01-6.768l57.48 70.796c-.77 1.811-2.701 6.213-4.6 10.541 0 0-27.181-11.599-36.043-15.443-8.861-3.843-11.878-5.202-17.162-7.536-8.466-3.737-16.759-7.329-21.287-9.299-.723-.315-.05.085.016-.06 1.678-3.82 1.964-4.472 2.347-5.376.05-.121.055-.305.176-.254.159.067 2.516 1.144 3.219 1.451 13.222 5.773 27.454 12.019 24.193 10.588zm42.803 18.877c-.598-.699-2.201-2.59-2.783-3.329-24.675-31.38-15.817-20.085-24.675-31.38-26.693-32.809-2.924-6.952-.015-1.627l-8.935 20.359c12.793 7.351-9.972-4.585-21.614-9.592-11.467-4.931 58.201 25.553 58.201 25.553z" style="font-style:normal;font-variant:normal;font-weight:400;font-stretch:normal;font-size:64px;line-height:25px;font-family:Maya;-inkscape-font-specification:Maya;letter-spacing:0;word-spacing:0;fill:#0f0c0d;fill-opacity:.968627;stroke:none;stroke-width:2.40386px;stroke-linecap:butt;stroke-linejoin:miter;stroke-opacity:1" transform="matrix(.25317 0 0 .24818 -9.457 -1.917)"/>
  <path style="opacity:.9;fill:#f8f7f6;fill-opacity:.870466;fill-rule:evenodd;stroke:#000;stroke-width:.748966;stroke-linecap:butt;stroke-linejoin:miter;stroke-miterlimit:4;stroke-dasharray:none;stroke-opacity:.823834" d="M7.791 267.337H207.73M10.57 269.182l194.233-.046" transform="matrix(.3551 0 0 .55351 -1.437 -138.358)"/>
  <path style="opacity:.9;fill:#f8f7f6;fill-opacity:.870466;fill-rule:evenodd;stroke:#000;stroke-width:.748966;stroke-linecap:butt;stroke-linejoin:miter;stroke-miterlimit:4;stroke-dasharray:none;stroke-opacity:.823834" d="M5.393 267.337h206.653M11.752 269.182h191.341" transform="matrix(0 .15648 -.56465 0 223.07 8.98)"/>
  <path style="opacity:.9;fill:#f8f7f6;fill-opacity:.870466;fill-rule:evenodd;stroke:#000;stroke-width:.748966;stroke-linecap:butt;stroke-linejoin:miter;stroke-miterlimit:4;stroke-dasharray:none;stroke-opacity:.823834" d="M8.422 267.337H207.95M8.36 269.182h216.156" transform="matrix(.09088 0 0 .55351 51.334 -91.96)"/>
</svg>
